<svg width="200" height="254" viewBox="0 0 200 254" fill="none" xmlns="http://www.w3.org/2000/svg">
<rect x="0.5" y="0.5" width="199" height="253" rx="9.5" stroke="white"/>
<g filter="url(#filter0_d_1_53471)">
<path d="M118.462 64.5375L84.2207 98.7792C82.9373 100.062 80.779 99.8875 79.729 98.3708C76.1123 93.0917 73.9832 86.85 73.9832 80.4333V67.6292C73.9832 65.2375 75.7915 62.525 78.0082 61.6208L94.254 54.9708C97.929 53.4542 102.012 53.4542 105.687 54.9708L117.5 59.7833C119.425 60.5708 119.921 63.0792 118.462 64.5375Z" fill="white"/>
</g>
<g filter="url(#filter1_d_1_53471)">
<path d="M121.204 68.5333C123.1 66.9292 125.988 68.3 125.988 70.7792V80.4333C125.988 94.6958 115.633 108.054 101.488 111.962C100.525 112.225 99.4751 112.225 98.4834 111.962C94.3417 110.796 90.4917 108.842 87.1959 106.275C85.7959 105.196 85.6501 103.154 86.8751 101.9C93.2334 95.3958 111.842 76.4375 121.204 68.5333Z" fill="white"/>
</g>
<g filter="url(#filter2_d_1_53471)">
<path d="M63.954 145.528V150.424H69.714V152.656H63.954V157.768H70.434V160H61.218V143.296H70.434V145.528H63.954ZM80.4759 146.56C81.5159 146.56 82.4439 146.776 83.2599 147.208C84.0919 147.64 84.7399 148.28 85.2039 149.128C85.6679 149.976 85.8999 151 85.8999 152.2V160H83.1879V152.608C83.1879 151.424 82.8919 150.52 82.2999 149.896C81.7079 149.256 80.8999 148.936 79.8759 148.936C78.8519 148.936 78.0359 149.256 77.4279 149.896C76.8359 150.52 76.5399 151.424 76.5399 152.608V160H73.8039V146.776H76.5399V148.288C76.9879 147.744 77.5559 147.32 78.2439 147.016C78.9479 146.712 79.6919 146.56 80.4759 146.56ZM94.7178 146.56C95.7418 146.56 96.6458 146.768 97.4298 147.184C98.2298 147.584 98.8538 148.088 99.3018 148.696V146.776H102.062V160.216C102.062 161.432 101.806 162.512 101.294 163.456C100.782 164.416 100.038 165.168 99.0618 165.712C98.1018 166.256 96.9498 166.528 95.6058 166.528C93.8138 166.528 92.3258 166.104 91.1418 165.256C89.9578 164.424 89.2858 163.288 89.1258 161.848H91.8378C92.0458 162.536 92.4858 163.088 93.1578 163.504C93.8458 163.936 94.6618 164.152 95.6058 164.152C96.7098 164.152 97.5978 163.816 98.2698 163.144C98.9578 162.472 99.3018 161.496 99.3018 160.216V158.008C98.8378 158.632 98.2058 159.16 97.4058 159.592C96.6218 160.008 95.7258 160.216 94.7178 160.216C93.5658 160.216 92.5098 159.928 91.5498 159.352C90.6058 158.76 89.8538 157.944 89.2938 156.904C88.7498 155.848 88.4778 154.656 88.4778 153.328C88.4778 152 88.7498 150.824 89.2938 149.8C89.8538 148.776 90.6058 147.984 91.5498 147.424C92.5098 146.848 93.5658 146.56 94.7178 146.56ZM99.3018 153.376C99.3018 152.464 99.1098 151.672 98.7258 151C98.3578 150.328 97.8698 149.816 97.2618 149.464C96.6538 149.112 95.9978 148.936 95.2938 148.936C94.5898 148.936 93.9338 149.112 93.3258 149.464C92.7178 149.8 92.2218 150.304 91.8378 150.976C91.4698 151.632 91.2858 152.416 91.2858 153.328C91.2858 154.24 91.4698 155.04 91.8378 155.728C92.2218 156.416 92.7178 156.944 93.3258 157.312C93.9498 157.664 94.6058 157.84 95.2938 157.84C95.9978 157.84 96.6538 157.664 97.2618 157.312C97.8698 156.96 98.3578 156.448 98.7258 155.776C99.1098 155.088 99.3018 154.288 99.3018 153.376ZM107.047 145.024C106.551 145.024 106.135 144.856 105.799 144.52C105.463 144.184 105.295 143.768 105.295 143.272C105.295 142.776 105.463 142.36 105.799 142.024C106.135 141.688 106.551 141.52 107.047 141.52C107.527 141.52 107.935 141.688 108.271 142.024C108.607 142.36 108.775 142.776 108.775 143.272C108.775 143.768 108.607 144.184 108.271 144.52C107.935 144.856 107.527 145.024 107.047 145.024ZM108.391 146.776V160H105.655V146.776H108.391ZM118.656 146.56C119.696 146.56 120.624 146.776 121.44 147.208C122.272 147.64 122.92 148.28 123.384 149.128C123.848 149.976 124.08 151 124.08 152.2V160H121.368V152.608C121.368 151.424 121.072 150.52 120.48 149.896C119.888 149.256 119.08 148.936 118.056 148.936C117.032 148.936 116.216 149.256 115.608 149.896C115.016 150.52 114.72 151.424 114.72 152.608V160H111.984V146.776H114.72V148.288C115.168 147.744 115.736 147.32 116.424 147.016C117.128 146.712 117.872 146.56 118.656 146.56ZM139.69 153.064C139.69 153.56 139.658 154.008 139.594 154.408H129.49C129.57 155.464 129.962 156.312 130.666 156.952C131.37 157.592 132.234 157.912 133.258 157.912C134.73 157.912 135.77 157.296 136.378 156.064H139.33C138.93 157.28 138.202 158.28 137.146 159.064C136.106 159.832 134.81 160.216 133.258 160.216C131.994 160.216 130.858 159.936 129.85 159.376C128.858 158.8 128.074 158 127.498 156.976C126.938 155.936 126.658 154.736 126.658 153.376C126.658 152.016 126.93 150.824 127.474 149.8C128.034 148.76 128.81 147.96 129.802 147.4C130.81 146.84 131.962 146.56 133.258 146.56C134.506 146.56 135.618 146.832 136.594 147.376C137.57 147.92 138.33 148.688 138.874 149.68C139.418 150.656 139.69 151.784 139.69 153.064ZM136.834 152.2C136.818 151.192 136.458 150.384 135.754 149.776C135.05 149.168 134.178 148.864 133.138 148.864C132.194 148.864 131.386 149.168 130.714 149.776C130.042 150.368 129.642 151.176 129.514 152.2H136.834ZM42.0048 184.72C42.4688 184.112 43.1008 183.6 43.9008 183.184C44.7008 182.768 45.6048 182.56 46.6128 182.56C47.7648 182.56 48.8128 182.848 49.7568 183.424C50.7168 183.984 51.4688 184.776 52.0128 185.8C52.5568 186.824 52.8288 188 52.8288 189.328C52.8288 190.656 52.5568 191.848 52.0128 192.904C51.4688 193.944 50.7168 194.76 49.7568 195.352C48.8128 195.928 47.7648 196.216 46.6128 196.216C45.6048 196.216 44.7088 196.016 43.9248 195.616C43.1408 195.2 42.5008 194.688 42.0048 194.08V202.288H39.2688V182.776H42.0048V184.72ZM50.0448 189.328C50.0448 188.416 49.8528 187.632 49.4688 186.976C49.1008 186.304 48.6048 185.8 47.9808 185.464C47.3728 185.112 46.7168 184.936 46.0128 184.936C45.3248 184.936 44.6688 185.112 44.0448 185.464C43.4368 185.816 42.9408 186.328 42.5568 187C42.1888 187.672 42.0048 188.464 42.0048 189.376C42.0048 190.288 42.1888 191.088 42.5568 191.776C42.9408 192.448 43.4368 192.96 44.0448 193.312C44.6688 193.664 45.3248 193.84 46.0128 193.84C46.7168 193.84 47.3728 193.664 47.9808 193.312C48.6048 192.944 49.1008 192.416 49.4688 191.728C49.8528 191.04 50.0448 190.24 50.0448 189.328ZM58.2704 184.696C58.6704 184.024 59.1984 183.504 59.8544 183.136C60.5264 182.752 61.3184 182.56 62.2304 182.56V185.392H61.5344C60.4624 185.392 59.6464 185.664 59.0864 186.208C58.5424 186.752 58.2704 187.696 58.2704 189.04V196H55.5344V182.776H58.2704V184.696ZM70.4813 196.216C69.2333 196.216 68.1053 195.936 67.0973 195.376C66.0893 194.8 65.2973 194 64.7213 192.976C64.1453 191.936 63.8573 190.736 63.8573 189.376C63.8573 188.032 64.1533 186.84 64.7453 185.8C65.3373 184.76 66.1453 183.96 67.1693 183.4C68.1933 182.84 69.3373 182.56 70.6013 182.56C71.8653 182.56 73.0093 182.84 74.0333 183.4C75.0573 183.96 75.8653 184.76 76.4573 185.8C77.0493 186.84 77.3453 188.032 77.3453 189.376C77.3453 190.72 77.0413 191.912 76.4333 192.952C75.8253 193.992 74.9933 194.8 73.9373 195.376C72.8973 195.936 71.7453 196.216 70.4813 196.216ZM70.4813 193.84C71.1853 193.84 71.8413 193.672 72.4493 193.336C73.0733 193 73.5773 192.496 73.9613 191.824C74.3453 191.152 74.5373 190.336 74.5373 189.376C74.5373 188.416 74.3533 187.608 73.9853 186.952C73.6173 186.28 73.1293 185.776 72.5213 185.44C71.9133 185.104 71.2573 184.936 70.5533 184.936C69.8493 184.936 69.1933 185.104 68.5853 185.44C67.9933 185.776 67.5213 186.28 67.1693 186.952C66.8173 187.608 66.6413 188.416 66.6413 189.376C66.6413 190.8 67.0013 191.904 67.7213 192.688C68.4573 193.456 69.3773 193.84 70.4813 193.84ZM83.242 185.008V192.328C83.242 192.824 83.354 193.184 83.578 193.408C83.818 193.616 84.218 193.72 84.778 193.72H86.458V196H84.298C83.066 196 82.122 195.712 81.466 195.136C80.81 194.56 80.482 193.624 80.482 192.328V185.008H78.922V182.776H80.482V179.488H83.242V182.776H86.458V185.008H83.242ZM101.1 189.064C101.1 189.56 101.068 190.008 101.004 190.408H90.8997C90.9797 191.464 91.3717 192.312 92.0757 192.952C92.7797 193.592 93.6437 193.912 94.6677 193.912C96.1397 193.912 97.1797 193.296 97.7877 192.064H100.74C100.34 193.28 99.6117 194.28 98.5557 195.064C97.5157 195.832 96.2197 196.216 94.6677 196.216C93.4037 196.216 92.2677 195.936 91.2597 195.376C90.2677 194.8 89.4837 194 88.9077 192.976C88.3477 191.936 88.0677 190.736 88.0677 189.376C88.0677 188.016 88.3397 186.824 88.8837 185.8C89.4437 184.76 90.2197 183.96 91.2117 183.4C92.2197 182.84 93.3717 182.56 94.6677 182.56C95.9157 182.56 97.0277 182.832 98.0037 183.376C98.9797 183.92 99.7397 184.688 100.284 185.68C100.828 186.656 101.1 187.784 101.1 189.064ZM98.2437 188.2C98.2277 187.192 97.8677 186.384 97.1637 185.776C96.4597 185.168 95.5877 184.864 94.5477 184.864C93.6037 184.864 92.7957 185.168 92.1237 185.776C91.4517 186.368 91.0517 187.176 90.9237 188.2H98.2437ZM102.88 189.376C102.88 188.016 103.152 186.824 103.696 185.8C104.256 184.76 105.024 183.96 106 183.4C106.976 182.84 108.096 182.56 109.36 182.56C110.96 182.56 112.28 182.944 113.32 183.712C114.376 184.464 115.088 185.544 115.456 186.952H112.504C112.264 186.296 111.88 185.784 111.352 185.416C110.824 185.048 110.16 184.864 109.36 184.864C108.24 184.864 107.344 185.264 106.672 186.064C106.016 186.848 105.688 187.952 105.688 189.376C105.688 190.8 106.016 191.912 106.672 192.712C107.344 193.512 108.24 193.912 109.36 193.912C110.944 193.912 111.992 193.216 112.504 191.824H115.456C115.072 193.168 114.352 194.24 113.296 195.04C112.24 195.824 110.928 196.216 109.36 196.216C108.096 196.216 106.976 195.936 106 195.376C105.024 194.8 104.256 194 103.696 192.976C103.152 191.936 102.88 190.736 102.88 189.376ZM121.375 185.008V192.328C121.375 192.824 121.487 193.184 121.711 193.408C121.951 193.616 122.351 193.72 122.911 193.72H124.591V196H122.431C121.199 196 120.255 195.712 119.599 195.136C118.943 194.56 118.615 193.624 118.615 192.328V185.008H117.055V182.776H118.615V179.488H121.375V182.776H124.591V185.008H121.375ZM128.505 181.024C128.009 181.024 127.593 180.856 127.257 180.52C126.921 180.184 126.753 179.768 126.753 179.272C126.753 178.776 126.921 178.36 127.257 178.024C127.593 177.688 128.009 177.52 128.505 177.52C128.985 177.52 129.393 177.688 129.729 178.024C130.065 178.36 130.233 178.776 130.233 179.272C130.233 179.768 130.065 180.184 129.729 180.52C129.393 180.856 128.985 181.024 128.505 181.024ZM129.849 182.776V196H127.113V182.776H129.849ZM139.177 196.216C137.929 196.216 136.801 195.936 135.793 195.376C134.785 194.8 133.993 194 133.417 192.976C132.841 191.936 132.553 190.736 132.553 189.376C132.553 188.032 132.849 186.84 133.441 185.8C134.033 184.76 134.841 183.96 135.865 183.4C136.889 182.84 138.033 182.56 139.297 182.56C140.561 182.56 141.705 182.84 142.729 183.4C143.753 183.96 144.561 184.76 145.153 185.8C145.745 186.84 146.041 188.032 146.041 189.376C146.041 190.72 145.737 191.912 145.129 192.952C144.521 193.992 143.689 194.8 142.633 195.376C141.593 195.936 140.441 196.216 139.177 196.216ZM139.177 193.84C139.881 193.84 140.537 193.672 141.145 193.336C141.769 193 142.273 192.496 142.657 191.824C143.041 191.152 143.233 190.336 143.233 189.376C143.233 188.416 143.049 187.608 142.681 186.952C142.313 186.28 141.825 185.776 141.217 185.44C140.609 185.104 139.953 184.936 139.249 184.936C138.545 184.936 137.889 185.104 137.281 185.44C136.689 185.776 136.217 186.28 135.865 186.952C135.513 187.608 135.337 188.416 135.337 189.376C135.337 190.8 135.697 191.904 136.417 192.688C137.153 193.456 138.073 193.84 139.177 193.84ZM155.417 182.56C156.457 182.56 157.385 182.776 158.201 183.208C159.033 183.64 159.681 184.28 160.145 185.128C160.609 185.976 160.841 187 160.841 188.2V196H158.129V188.608C158.129 187.424 157.833 186.52 157.241 185.896C156.649 185.256 155.841 184.936 154.817 184.936C153.793 184.936 152.977 185.256 152.369 185.896C151.777 186.52 151.481 187.424 151.481 188.608V196H148.745V182.776H151.481V184.288C151.929 183.744 152.497 183.32 153.185 183.016C153.889 182.712 154.633 182.56 155.417 182.56Z" fill="white"/>
</g>
<defs>
<filter id="filter0_d_1_53471" x="53.9832" y="33.8333" width="85.325" height="85.803" filterUnits="userSpaceOnUse" color-interpolation-filters="sRGB">
<feFlood flood-opacity="0" result="BackgroundImageFix"/>
<feColorMatrix in="SourceAlpha" type="matrix" values="0 0 0 0 0 0 0 0 0 0 0 0 0 0 0 0 0 0 127 0" result="hardAlpha"/>
<feOffset/>
<feGaussianBlur stdDeviation="10"/>
<feComposite in2="hardAlpha" operator="out"/>
<feColorMatrix type="matrix" values="0 0 0 0 1 0 0 0 0 1 0 0 0 0 1 0 0 0 0.46 0"/>
<feBlend mode="normal" in2="BackgroundImageFix" result="effect1_dropShadow_1_53471"/>
<feBlend mode="normal" in="SourceGraphic" in2="effect1_dropShadow_1_53471" result="shape"/>
</filter>
<filter id="filter1_d_1_53471" x="66.0433" y="47.8424" width="79.9442" height="84.317" filterUnits="userSpaceOnUse" color-interpolation-filters="sRGB">
<feFlood flood-opacity="0" result="BackgroundImageFix"/>
<feColorMatrix in="SourceAlpha" type="matrix" values="0 0 0 0 0 0 0 0 0 0 0 0 0 0 0 0 0 0 127 0" result="hardAlpha"/>
<feOffset/>
<feGaussianBlur stdDeviation="10"/>
<feComposite in2="hardAlpha" operator="out"/>
<feColorMatrix type="matrix" values="0 0 0 0 1 0 0 0 0 1 0 0 0 0 1 0 0 0 0.46 0"/>
<feBlend mode="normal" in2="BackgroundImageFix" result="effect1_dropShadow_1_53471"/>
<feBlend mode="normal" in="SourceGraphic" in2="effect1_dropShadow_1_53471" result="shape"/>
</filter>
<filter id="filter2_d_1_53471" x="19.2688" y="121.52" width="161.573" height="100.768" filterUnits="userSpaceOnUse" color-interpolation-filters="sRGB">
<feFlood flood-opacity="0" result="BackgroundImageFix"/>
<feColorMatrix in="SourceAlpha" type="matrix" values="0 0 0 0 0 0 0 0 0 0 0 0 0 0 0 0 0 0 127 0" result="hardAlpha"/>
<feOffset/>
<feGaussianBlur stdDeviation="10"/>
<feComposite in2="hardAlpha" operator="out"/>
<feColorMatrix type="matrix" values="0 0 0 0 1 0 0 0 0 1 0 0 0 0 1 0 0 0 0.46 0"/>
<feBlend mode="normal" in2="BackgroundImageFix" result="effect1_dropShadow_1_53471"/>
<feBlend mode="normal" in="SourceGraphic" in2="effect1_dropShadow_1_53471" result="shape"/>
</filter>
</defs>
</svg>
